# xmcd
#
# Track frame offsets: 
#        150
#        20349
#        40401
#        73980
#        100392
#        117619
#        144885
#        171569
#        200181
#
# Disc length: 3865 seconds
#
# Revision: 0
# Processed by: cddbd v1.5.2PL0 Copyright (c) Steve Scherf et al.
# Submitted via: ExactAudioCopy v0.95b4
#
DISCID=8e0f1709
DTITLE=Panda - The Extended Family
DYEAR=2004
DGENRE=Funk
TTITLE0=Mr. Moonshine
TTITLE1=Woodoo Daddy
TTITLE2=Rollercoaster
TTITLE3=Empty Street
TTITLE4=Ugliest Sound
TTITLE5=Blindman
TTITLE6=Kitchenwoman
TTITLE7=When I Was Born
TTITLE8=War
EXTD=
EXTT0=
EXTT1=
EXTT2=
EXTT3=
EXTT4=
EXTT5=
EXTT6=
EXTT7=
EXTT8=
PLAYORDER=
